<svg viewBox="0 0 1409 384" fill="none" xmlns="http://www.w3.org/2000/svg">
<path d="M8.448 191.888C8.448 174.139 12.288 158.352 19.968 144.528C27.648 130.533 38.3147 119.696 51.968 112.016C65.792 104.165 81.408 100.24 98.816 100.24C120.149 100.24 138.411 105.872 153.6 117.136C168.789 128.4 178.944 143.76 184.064 163.216H135.936C132.352 155.707 127.232 149.989 120.576 146.064C114.091 142.139 106.667 140.176 98.304 140.176C84.8213 140.176 73.8987 144.869 65.536 154.256C57.1733 163.643 52.992 176.187 52.992 191.888C52.992 207.589 57.1733 220.133 65.536 229.52C73.8987 238.907 84.8213 243.6 98.304 243.6C106.667 243.6 114.091 241.637 120.576 237.712C127.232 233.787 132.352 228.069 135.936 220.56H184.064C178.944 240.016 168.789 255.376 153.6 266.64C138.411 277.733 120.149 283.28 98.816 283.28C81.408 283.28 65.792 279.44 51.968 271.76C38.3147 263.909 27.648 253.072 19.968 239.248C12.288 225.424 8.448 209.637 8.448 191.888ZM366.52 102.288V282H322.744V208.016H254.648V282H210.872V102.288H254.648V172.688H322.744V102.288H366.52ZM489.77 282L452.394 214.16H441.898V282H398.122V102.288H471.594C485.759 102.288 497.791 104.763 507.69 109.712C517.759 114.661 525.269 121.488 530.218 130.192C535.167 138.725 537.642 148.283 537.642 158.864C537.642 170.811 534.229 181.477 527.402 190.864C520.746 200.251 510.847 206.907 497.706 210.832L539.178 282H489.77ZM441.898 183.184H469.034C477.055 183.184 483.029 181.221 486.954 177.296C491.05 173.371 493.098 167.824 493.098 160.656C493.098 153.829 491.05 148.453 486.954 144.528C483.029 140.603 477.055 138.64 469.034 138.64H441.898V183.184ZM608.898 102.288V282H565.122V102.288H608.898ZM705.646 283.792C692.505 283.792 680.729 281.659 670.318 277.392C659.907 273.125 651.545 266.811 645.23 258.448C639.086 250.085 635.843 240.016 635.502 228.24H682.094C682.777 234.896 685.081 240.016 689.006 243.6C692.931 247.013 698.051 248.72 704.366 248.72C710.851 248.72 715.971 247.269 719.726 244.368C723.481 241.296 725.358 237.115 725.358 231.824C725.358 227.387 723.822 223.717 720.75 220.816C717.849 217.915 714.179 215.525 709.742 213.648C705.475 211.771 699.331 209.637 691.31 207.248C679.705 203.664 670.233 200.08 662.894 196.496C655.555 192.912 649.241 187.621 643.95 180.624C638.659 173.627 636.014 164.496 636.014 153.232C636.014 136.507 642.073 123.451 654.19 114.064C666.307 104.507 682.094 99.728 701.55 99.728C721.347 99.728 737.305 104.507 749.422 114.064C761.539 123.451 768.025 136.592 768.878 153.488H721.518C721.177 147.685 719.043 143.163 715.118 139.92C711.193 136.507 706.158 134.8 700.014 134.8C694.723 134.8 690.457 136.251 687.214 139.152C683.971 141.883 682.35 145.893 682.35 151.184C682.35 156.987 685.081 161.509 690.542 164.752C696.003 167.995 704.537 171.493 716.142 175.248C727.747 179.173 737.134 182.928 744.302 186.512C751.641 190.096 757.955 195.301 763.246 202.128C768.537 208.955 771.182 217.744 771.182 228.496C771.182 238.736 768.537 248.037 763.246 256.4C758.126 264.763 750.617 271.419 740.718 276.368C730.819 281.317 719.129 283.792 705.646 283.792ZM927.402 102.288V137.36H879.786V282H836.01V137.36H788.394V102.288H927.402ZM993.148 102.288V282H949.372V102.288H993.148ZM1136.74 250.256H1069.67L1058.92 282H1013.1L1078.12 102.288H1128.81L1193.83 282H1147.5L1136.74 250.256ZM1125.48 216.464L1103.21 150.672L1081.19 216.464H1125.48ZM1374.39 282H1330.61L1257.4 171.152V282H1213.62V102.288H1257.4L1330.61 213.648V102.288H1374.39V282Z" fill="#793A73"/>
<path d="M26.448 191.888C26.448 174.139 30.288 158.352 37.968 144.528C45.648 130.533 56.3147 119.696 69.968 112.016C83.792 104.165 99.408 100.24 116.816 100.24C138.149 100.24 156.411 105.872 171.6 117.136C186.789 128.4 196.944 143.76 202.064 163.216H153.936C150.352 155.707 145.232 149.989 138.576 146.064C132.091 142.139 124.667 140.176 116.304 140.176C102.821 140.176 91.8987 144.869 83.536 154.256C75.1733 163.643 70.992 176.187 70.992 191.888C70.992 207.589 75.1733 220.133 83.536 229.52C91.8987 238.907 102.821 243.6 116.304 243.6C124.667 243.6 132.091 241.637 138.576 237.712C145.232 233.787 150.352 228.069 153.936 220.56H202.064C196.944 240.016 186.789 255.376 171.6 266.64C156.411 277.733 138.149 283.28 116.816 283.28C99.408 283.28 83.792 279.44 69.968 271.76C56.3147 263.909 45.648 253.072 37.968 239.248C30.288 225.424 26.448 209.637 26.448 191.888ZM384.52 102.288V282H340.744V208.016H272.648V282H228.872V102.288H272.648V172.688H340.744V102.288H384.52ZM507.77 282L470.394 214.16H459.898V282H416.122V102.288H489.594C503.759 102.288 515.791 104.763 525.69 109.712C535.759 114.661 543.269 121.488 548.218 130.192C553.167 138.725 555.642 148.283 555.642 158.864C555.642 170.811 552.229 181.477 545.402 190.864C538.746 200.251 528.847 206.907 515.706 210.832L557.178 282H507.77ZM459.898 183.184H487.034C495.055 183.184 501.029 181.221 504.954 177.296C509.05 173.371 511.098 167.824 511.098 160.656C511.098 153.829 509.05 148.453 504.954 144.528C501.029 140.603 495.055 138.64 487.034 138.64H459.898V183.184ZM626.898 102.288V282H583.122V102.288H626.898ZM723.646 283.792C710.505 283.792 698.729 281.659 688.318 277.392C677.907 273.125 669.545 266.811 663.23 258.448C657.086 250.085 653.843 240.016 653.502 228.24H700.094C700.777 234.896 703.081 240.016 707.006 243.6C710.931 247.013 716.051 248.72 722.366 248.72C728.851 248.72 733.971 247.269 737.726 244.368C741.481 241.296 743.358 237.115 743.358 231.824C743.358 227.387 741.822 223.717 738.75 220.816C735.849 217.915 732.179 215.525 727.742 213.648C723.475 211.771 717.331 209.637 709.31 207.248C697.705 203.664 688.233 200.08 680.894 196.496C673.555 192.912 667.241 187.621 661.95 180.624C656.659 173.627 654.014 164.496 654.014 153.232C654.014 136.507 660.073 123.451 672.19 114.064C684.307 104.507 700.094 99.728 719.55 99.728C739.347 99.728 755.305 104.507 767.422 114.064C779.539 123.451 786.025 136.592 786.878 153.488H739.518C739.177 147.685 737.043 143.163 733.118 139.92C729.193 136.507 724.158 134.8 718.014 134.8C712.723 134.8 708.457 136.251 705.214 139.152C701.971 141.883 700.35 145.893 700.35 151.184C700.35 156.987 703.081 161.509 708.542 164.752C714.003 167.995 722.537 171.493 734.142 175.248C745.747 179.173 755.134 182.928 762.302 186.512C769.641 190.096 775.955 195.301 781.246 202.128C786.537 208.955 789.182 217.744 789.182 228.496C789.182 238.736 786.537 248.037 781.246 256.4C776.126 264.763 768.617 271.419 758.718 276.368C748.819 281.317 737.129 283.792 723.646 283.792ZM945.402 102.288V137.36H897.786V282H854.01V137.36H806.394V102.288H945.402ZM1011.15 102.288V282H967.372V102.288H1011.15ZM1154.74 250.256H1087.67L1076.92 282H1031.1L1096.12 102.288H1146.81L1211.83 282H1165.5L1154.74 250.256ZM1143.48 216.464L1121.21 150.672L1099.19 216.464H1143.48ZM1392.39 282H1348.61L1275.4 171.152V282H1231.62V102.288H1275.4L1348.61 213.648V102.288H1392.39V282Z" fill="url(#paint0_linear_738_2)"/>
<defs>
<linearGradient id="paint0_linear_738_2" x1="713.5" y1="0" x2="713.5" y2="406" gradientUnits="userSpaceOnUse">
<stop stop-color="white"/>
<stop offset="0.963542" stop-color="#9E87F8"/>
</linearGradient>
</defs>
</svg>
