<svg viewBox="0 0 771 1080" preserveAspectRatio="xMinYMid meet" fill="none" xmlns="http://www.w3.org/2000/svg">
<path id="Line" d="M770.224 1692.76L-226.146 -33L-236.482 -27.0322L759.887 1698.73L770.224 1692.76Z" fill="#FE8ECB" fill-opacity="0.25"/>
<path id="Line_01" d="M742.672 1708.67L-253.697 -17.0933L-264.033 -11.1255L732.336 1714.64L742.672 1708.67Z" fill="#FE8ECB" fill-opacity="0.25"/>
<path id="Line_02" d="M715.16 1724.55L-281.209 -1.20909L-291.546 4.75871L704.824 1730.52L715.16 1724.55Z" fill="#FE8ECB" fill-opacity="0.25"/>
<path id="Line_03" d="M687.648 1740.44L-308.721 14.6751L-319.058 20.6429L677.311 1746.41L687.648 1740.44Z" fill="#FE8ECB" fill-opacity="0.25"/>
<path id="Line_04" d="M660.097 1756.34L-336.272 30.5818L-346.609 36.5496L649.76 1762.31L660.097 1756.34Z" fill="#FE8ECB" fill-opacity="0.25"/>
<path id="Line_05" d="M632.584 1772.23L-363.785 46.466L-374.121 52.4339L622.248 1778.2L632.584 1772.23Z" fill="#FE8ECB" fill-opacity="0.25"/>
<path id="Line_06" d="M605.072 1788.11L-391.297 62.3503L-401.633 68.3181L594.736 1794.08L605.072 1788.11Z" fill="#FE8ECB" fill-opacity="0.25"/>
<path id="Line_07" d="M577.521 1804.02L-418.848 78.257L-429.185 84.2248L567.184 1809.99L577.521 1804.02Z" fill="#FE8ECB" fill-opacity="0.25"/>
<path id="Line_08" d="M550.009 1819.9L-446.36 94.1412L-456.697 100.109L539.672 1825.87L550.009 1819.9Z" fill="#FE8ECB" fill-opacity="0.25"/>
<path id="Line_09" d="M522.496 1835.79L-473.873 110.025L-484.21 115.993L512.16 1841.76L522.496 1835.79Z" fill="#FE8ECB" fill-opacity="0.25"/>
<path id="Line_10" d="M494.945 1851.69L-501.424 125.932L-511.76 131.9L484.609 1857.66L494.945 1851.69Z" fill="#FE8ECB" fill-opacity="0.25"/>
<path id="Line_11" d="M467.433 1867.58L-528.937 141.816L-539.273 147.784L457.096 1873.55L467.433 1867.58Z" fill="#FE8ECB" fill-opacity="0.25"/>
<path id="Line_12" d="M439.92 1883.46L-556.449 157.701L-566.785 163.668L429.584 1889.43L439.92 1883.46Z" fill="#FE8ECB" fill-opacity="0.25"/>
<path id="Line_13" d="M412.408 1899.35L-583.961 173.585L-594.297 179.553L402.072 1905.31L412.408 1899.35Z" fill="#FE8ECB" fill-opacity="0.25"/>
<path id="Line_14" d="M384.857 1915.25L-611.512 189.491L-621.849 195.459L374.52 1921.22L384.857 1915.25Z" fill="#FE8ECB" fill-opacity="0.25"/>
<path id="Line_15" d="M357.345 1931.14L-639.024 205.376L-649.361 211.344L347.008 1937.11L357.345 1931.14Z" fill="#FE8ECB" fill-opacity="0.25"/>
<path id="Line_16" d="M329.833 1947.02L-666.537 221.26L-676.873 227.228L319.496 1952.99L329.833 1947.02Z" fill="#FE8ECB" fill-opacity="0.25"/>
<path id="Line_17" d="M302.281 1962.93L-694.088 237.167L-704.424 243.134L291.945 1968.9L302.281 1962.93Z" fill="#FE8ECB" fill-opacity="0.25"/>
<path id="Line_18" d="M274.769 1978.81L-721.6 253.051L-731.937 259.019L264.432 1984.78L274.769 1978.81Z" fill="#FE8ECB" fill-opacity="0.25"/>
<path id="Line_19" d="M247.257 1994.7L-749.112 268.935L-759.449 274.903L236.92 2000.67L247.257 1994.7Z" fill="#FE8ECB" fill-opacity="0.25"/>
<path id="Line_20" d="M219.706 2010.6L-776.664 284.842L-787 290.81L209.369 2016.57L219.706 2010.6Z" fill="#FE8ECB" fill-opacity="0.25"/>
</svg>
