<svg viewBox="0 0 74 74" fill="none" xmlns="http://www.w3.org/2000/svg">
<g clip-path="url(#clip0_644_1003)">
<path fill-rule="evenodd" clip-rule="evenodd" d="M37 0C57.4351 0 74 16.9827 74 37.9358C74 54.6931 63.4106 68.9086 48.7179 73.9295C46.842 74.3032 46.176 73.1185 46.176 72.1085C46.176 70.8578 46.2204 66.7732 46.2204 61.6968C46.2204 58.1596 45.0364 55.851 43.7081 54.6744C51.948 53.7346 60.606 50.5264 60.606 35.9558C60.606 31.8118 59.1704 28.4301 56.795 25.7735C57.1798 24.8152 58.4489 20.9566 56.4324 15.7322C56.4324 15.7322 53.3318 14.7157 46.2685 19.6219C43.3122 18.782 40.145 18.3594 37 18.3446C33.855 18.3594 30.6915 18.782 27.7389 19.6219C20.6682 14.7157 17.5602 15.7322 17.5602 15.7322C15.5511 20.9566 16.8202 24.8152 17.2013 25.7735C14.837 28.4301 13.3903 31.8118 13.3903 35.9558C13.3903 50.4894 22.0298 53.7468 30.2475 54.7051C29.1893 55.6523 28.231 57.3232 27.898 59.7763C25.789 60.7457 20.4314 62.4234 17.131 56.6255C17.131 56.6255 15.1737 52.9806 11.4589 52.7142C11.4589 52.7142 7.8514 52.6662 11.2073 55.0194C11.2073 55.0194 13.6308 56.1849 15.3143 60.5694C15.3143 60.5694 17.4862 67.3403 27.7796 65.0463C27.7981 68.2172 27.8314 71.2057 27.8314 72.1085C27.8314 73.1111 27.1506 74.2847 25.3043 73.9332C10.6005 68.9197 0 54.6968 0 37.9358C0 16.9827 16.5686 0 37 0Z" fill="white"/>
</g>
<defs>
<clipPath id="clip0_644_1003">
<rect width="74" height="74" fill="white"/>
</clipPath>
</defs>
</svg>
