<svg width="78" height="77" viewBox="0 0 78 77" fill="none" xmlns="http://www.w3.org/2000/svg">
<rect width="78" height="77" rx="12.027" fill="#48479E"/>
<path d="M15.7535 63.6636H22.7736C23.7421 63.6636 24.5272 62.8784 24.5272 61.9099V31.2253C24.5272 30.2567 23.7421 29.4717 22.7736 29.4717H15.7535C14.7849 29.4717 14 30.2567 14 31.2253V61.9099C14 62.8783 14.7849 63.6636 15.7535 63.6636Z" fill="white"/>
<path d="M15.7535 24.0772H22.7736C23.7421 24.0772 24.5272 23.2922 24.5272 22.3237V16.0898C24.5272 15.1213 23.7421 14.3363 22.7736 14.3363H15.7535C14.7849 14.3363 14 15.1213 14 16.0898V22.3237C14 23.2922 14.7849 24.0772 15.7535 24.0772Z" fill="white"/>
<path d="M65.3585 33.0308C64.3721 31.7323 62.9175 30.6644 60.9941 29.8274C59.0708 28.991 56.9478 28.5725 54.6251 28.5725C49.9098 28.5725 45.9142 30.3721 42.6386 33.9718C41.9868 34.6881 41.5129 34.5315 41.5129 33.5629V31.2253C41.5129 30.2567 40.7278 29.4717 39.7593 29.4717H33.4884C32.5198 29.4717 31.7349 30.2567 31.7349 31.2253V61.9099C31.7349 62.8784 32.5199 63.6636 33.4884 63.6636H40.5085C41.4771 63.6636 42.262 62.8784 42.262 61.9099V51.2386C42.262 46.7929 42.5305 43.7457 43.0674 42.0974C43.6041 40.4491 44.5972 39.1255 46.0457 38.1264C47.4945 37.1273 49.1302 36.6275 50.9537 36.6275C52.3772 36.6275 53.5949 36.9773 54.6066 37.6768C55.6182 38.3763 56.3488 39.3561 56.7984 40.6177C57.2481 41.879 57.4728 44.6575 57.4728 48.9535V61.9098C57.4728 62.8783 58.2578 63.6635 59.2262 63.6635H66.2463C67.2148 63.6635 67.9998 62.8783 67.9998 61.9098V44.5326C67.9998 41.4607 67.8061 39.1003 67.4194 37.452C67.0326 35.8037 66.3456 34.33 65.3585 33.0308Z" fill="white"/>
</svg>
