<svg width="516" height="276" viewBox="0 0 516 276" fill="none" xmlns="http://www.w3.org/2000/svg">
<path d="M0.000473115 346.966C-0.0475519 321.798 8.44076 297.065 24.6104 275.26L214.647 19.3493C219.069 13.461 225.398 8.57605 233.004 5.18112C240.611 1.78619 249.229 -1.16381e-05 258 -1.12554e-05C266.771 -1.08727e-05 275.39 1.78619 282.996 5.18112C290.603 8.57605 296.932 13.4611 301.353 19.3493L491.39 275.26C507.489 297.063 515.96 321.764 515.96 346.903C515.96 372.042 507.489 396.742 491.39 418.545L301.353 674.456C296.965 680.376 290.647 685.293 283.036 688.712C275.426 692.131 266.79 693.931 258 693.931C249.21 693.931 240.575 692.131 232.964 688.712C225.353 685.293 219.036 680.376 214.647 674.456L24.6104 418.545C8.43974 396.787 -0.0496908 372.094 0.000473115 346.966ZM50.8507 287.042C37.3963 305.259 30.3163 325.898 30.3163 346.903C30.3163 367.908 37.3963 388.546 50.8507 406.763L240.887 662.674C242.512 664.938 244.871 666.832 247.731 668.165C250.591 669.499 253.851 670.227 257.185 670.275C260.524 670.239 263.79 669.517 266.653 668.182C269.515 666.847 271.872 664.947 273.484 662.674L463.683 406.763C477.137 388.546 484.217 367.908 484.217 346.903C484.217 325.898 477.137 305.259 463.683 287.042L454.926 275.26L273.484 31.1312C271.847 28.8753 269.484 26.9888 266.627 25.6563C263.77 24.3238 260.517 23.5909 257.186 23.5299C253.862 23.6152 250.62 24.3583 247.769 25.6884C244.917 27.0184 242.548 28.8916 240.887 31.1312L59.5998 275.26L50.8507 287.042Z" fill="url(#paint0_linear_644_971)"/>
<defs>
<linearGradient id="paint0_linear_644_971" x1="258" y1="-0.0339018" x2="258" y2="693.966" gradientUnits="userSpaceOnUse">
<stop stop-color="#E39A65"/>
<stop offset="1" stop-color="#E95F8D"/>
</linearGradient>
</defs>
</svg>
