<svg width="516" height="234" viewBox="0 0 516 234" fill="none" xmlns="http://www.w3.org/2000/svg">
<g clip-path="url(#clip0_644_973)">
<path d="M0.00193796 -113.002C-0.0460956 -138.17 8.44222 -162.902 24.6118 -184.707L214.649 -440.618C219.07 -446.506 225.399 -451.391 233.006 -454.786C240.612 -458.181 249.231 -459.967 258.002 -459.967C266.773 -459.967 275.391 -458.181 282.998 -454.786C290.604 -451.391 296.933 -446.506 301.355 -440.618L491.392 -184.707C507.491 -162.904 515.962 -138.204 515.962 -113.065C515.962 -87.9256 507.491 -63.2251 491.392 -41.4222L301.355 214.488C296.966 220.409 290.649 225.326 283.038 228.745C275.427 232.164 266.792 233.964 258.002 233.964C249.211 233.964 240.576 232.164 232.966 228.745C225.355 225.326 219.037 220.409 214.648 214.488L24.6118 -41.4222C8.44121 -63.1806 -0.048234 -87.8735 0.00193796 -113.002ZM50.8521 -172.925C37.3978 -154.709 30.3178 -134.07 30.3178 -113.065C30.3178 -92.0594 37.3977 -71.4211 50.8521 -53.2045L240.889 202.706C242.513 204.971 244.872 206.864 247.732 208.198C250.592 209.532 253.852 210.259 257.187 210.308C260.525 210.272 263.791 209.55 266.654 208.215C269.517 206.88 271.874 204.979 273.485 202.706L463.684 -53.2045C477.139 -71.4211 484.219 -92.0594 484.219 -113.065C484.219 -134.07 477.139 -154.708 463.684 -172.925L273.485 -428.836C271.848 -431.092 269.485 -432.978 266.628 -434.311C263.771 -435.644 260.518 -436.376 257.187 -436.437C253.863 -436.352 250.622 -435.609 247.77 -434.279C244.918 -432.949 242.55 -431.076 240.889 -428.836L50.8521 -172.925Z" fill="url(#paint0_linear_644_973)"/>
</g>
<defs>
<linearGradient id="paint0_linear_644_973" x1="258.002" y1="-460.001" x2="258.002" y2="233.999" gradientUnits="userSpaceOnUse">
<stop stop-color="#8D65E3"/>
<stop offset="1" stop-color="white"/>
</linearGradient>
<clipPath id="clip0_644_973">
<rect width="694" height="516" fill="white" transform="translate(516 -460) rotate(90)"/>
</clipPath>
</defs>
</svg>
