<svg width="410" height="234" viewBox="0 0 410 234" fill="none" xmlns="http://www.w3.org/2000/svg">
<g clip-path="url(#clip0_644_973)">
<path d="M-51.9981 -113.002C-52.0461 -138.17 -43.5578 -162.902 -27.3882 -184.707L162.649 -440.618C167.07 -446.506 173.399 -451.391 181.006 -454.786C188.612 -458.181 197.231 -459.967 206.002 -459.967C214.773 -459.967 223.391 -458.181 230.998 -454.786C238.604 -451.391 244.933 -446.506 249.355 -440.618L439.392 -184.707C455.491 -162.904 463.962 -138.204 463.962 -113.065C463.962 -87.9256 455.491 -63.2251 439.392 -41.4222L249.355 214.488C244.966 220.409 238.649 225.326 231.038 228.745C223.427 232.164 214.792 233.964 206.002 233.964C197.211 233.964 188.576 232.164 180.966 228.745C173.355 225.326 167.037 220.409 162.648 214.488L-27.3882 -41.4222C-43.5588 -63.1806 -52.0482 -87.8735 -51.9981 -113.002ZM-1.14787 -172.925C-14.6022 -154.709 -21.6822 -134.07 -21.6822 -113.065C-21.6822 -92.0594 -14.6023 -71.4211 -1.14788 -53.2045L188.889 202.706C190.513 204.971 192.872 206.864 195.732 208.198C198.592 209.532 201.852 210.259 205.187 210.308C208.525 210.272 211.791 209.55 214.654 208.215C217.517 206.88 219.874 204.979 221.485 202.706L411.684 -53.2045C425.139 -71.4211 432.219 -92.0594 432.219 -113.065C432.219 -134.07 425.139 -154.708 411.684 -172.925L221.485 -428.836C219.848 -431.092 217.485 -432.978 214.628 -434.311C211.771 -435.644 208.518 -436.376 205.187 -436.437C201.863 -436.352 198.622 -435.609 195.77 -434.279C192.918 -432.949 190.55 -431.076 188.889 -428.836L-1.14787 -172.925Z" fill="url(#paint0_linear_644_973)"/>
</g>
<defs>
<linearGradient id="paint0_linear_644_973" x1="206.002" y1="-460.001" x2="206.002" y2="233.999" gradientUnits="userSpaceOnUse">
<stop stop-color="#8D65E3"/>
<stop offset="1" stop-color="white"/>
</linearGradient>
<clipPath id="clip0_644_973">
<rect width="694" height="516" fill="white" transform="translate(464 -460) rotate(90)"/>
</clipPath>
</defs>
</svg>
